<?xml version="1.0" standalone="no"?><!DOCTYPE svg PUBLIC "-//W3C//DTD SVG 1.1//EN" "http://www.w3.org/Graphics/SVG/1.1/DTD/svg11.dtd"><svg t="1620288765485" class="icon" viewBox="0 0 1024 1024" version="1.1" xmlns="http://www.w3.org/2000/svg" p-id="4121" xmlns:xlink="http://www.w3.org/1999/xlink" width="200" height="200"><defs><style type="text/css"></style></defs><path d="M818.770178 135.837431h-614.031581c-56.490905 0-102.338597 13.645146-102.338597 56.832034v26.062229h818.708775v-26.062229c0-43.186888-45.779466-56.832034-102.338597-56.832034z m-92.37764 55.262842L706.470624 50.077687A60.379772 60.379772 0 0 0 648.20585 0H375.302925a60.516224 60.516224 0 0 0-58.264775 50.077687l-19.921913 141.090812c-3.888867 27.563195 15.964821 22.446266 44.073822 22.446265h341.128656c28.177227 0 48.030915 5.11693 44.073823-22.514491zM361.657779 162.513692L377.349697 51.032847h268.809381l15.691918 111.480845H361.657779zM835.826611 281.77227h-648.144447c-37.524152 0-65.496702 30.223999-62.085415 67.134119l55.945099 607.34546c3.411287 36.910121 36.841895 67.13412 74.366047 67.134119h511.692984c37.524152 0 70.95476-30.223999 74.366048-67.134119l55.945099-607.34546a60.857352 60.857352 0 0 0-62.085415-67.134119zM375.302925 953.113465H242.808555L198.598281 359.958958H375.302925v593.154507z m224.462656 0H422.85626V359.958958H599.765581v593.154507z m179.63835 0H648.20585V359.958958h174.930775l-43.664468 593.154507z" p-id="4122" fill="white"></path></svg>