<?xml version="1.0" standalone="no"?><!DOCTYPE svg PUBLIC "-//W3C//DTD SVG 1.1//EN" "http://www.w3.org/Graphics/SVG/1.1/DTD/svg11.dtd"><svg t="1620290701470" class="icon" viewBox="0 0 1024 1024" version="1.1" xmlns="http://www.w3.org/2000/svg" p-id="4871" xmlns:xlink="http://www.w3.org/1999/xlink" width="200" height="200"><defs><style type="text/css"></style></defs><path d="M318.155206 695.17926a53.749943 53.749943 0 0 0 76.019919 0l588.529374-588.444374a53.921943 53.921943 0 0 0 0-76.189919l-0.17-0.169999a53.749943 53.749943 0 0 0-75.933919 0.169999L318.070206 618.988341a53.921943 53.921943 0 0 0 0 76.189919z" p-id="4872" fill="#ffffff"></path><path d="M970.077512 431.202541h-0.255999a53.665943 53.665943 0 0 0-53.664943 53.663943V916.239025H107.84443V107.672885l431.371541 0.17a53.749943 53.749943 0 0 0 53.665943-53.834942v-0.17A53.665943 53.665943 0 0 0 539.131971 0.17H53.752488A53.323943 53.323943 0 0 0 0.090545 53.749943L0.003545 970.417967a53.323943 53.323943 0 0 0 53.663943 53.579943H970.419512a53.409943 53.409943 0 0 0 53.493943-53.750943V484.951484a53.749943 53.749943 0 0 0-53.835943-53.662943z" p-id="4873" fill="#ffffff"></path></svg>