<svg width="246" height="246" viewBox="0 0 246 246" fill="none" xmlns="http://www.w3.org/2000/svg">
<rect x="19.5355" y="123.543" width="31.1236" height="31.1236" rx="2.5" transform="rotate(-45 19.5355 123.543)" stroke="white" stroke-width="5"/>
<rect x="182.536" y="123.543" width="31.1236" height="31.1236" rx="2.5" transform="rotate(-45 182.536 123.543)" stroke="white" stroke-width="5"/>
<rect x="163.505" y="89.6131" width="6.37055" height="82.1778" rx="3" transform="rotate(-135 163.505 89.6131)" fill="white"/>
<rect x="31.5047" y="219.613" width="6.37055" height="82.1778" rx="3" transform="rotate(-135 31.5047 219.613)" fill="white"/>
<rect x="27" y="33.5047" width="6.37055" height="82.1778" rx="3" transform="rotate(-45 27 33.5047)" fill="white"/>
<rect x="159" y="161.505" width="6.37055" height="82.1778" rx="3" transform="rotate(-45 159 161.505)" fill="white"/>
<path d="M147.629 108.203C150.168 105.664 150.168 101.549 147.629 99.0104C145.091 96.472 140.975 96.472 138.437 99.0104" stroke="white" stroke-width="4"/>
<path d="M109.033 145.975L98.1011 148.647L100.733 137.674L109.033 145.975Z" stroke="white" stroke-width="3"/>
<line x1="101.314" y1="136.134" x2="138.79" y2="98.6569" stroke="white" stroke-width="4"/>
<line x1="110.506" y1="145.326" x2="147.983" y2="107.849" stroke="white" stroke-width="4"/>
<line x1="137.376" y1="100.071" x2="145.861" y2="108.556" stroke="white" stroke-width="4"/>
<rect x="107.791" y="96.8284" width="23.1653" height="11.2611" transform="rotate(45 107.791 96.8284)" stroke="white" stroke-width="4"/>
<rect x="133.791" y="122.828" width="23.1653" height="11.2611" transform="rotate(45 133.791 122.828)" stroke="white" stroke-width="4"/>
<rect x="115.243" y="104" width="3" height="6" transform="rotate(45 115.243 104)" fill="white"/>
<rect x="141.243" y="131" width="3" height="6" transform="rotate(45 141.243 131)" fill="white"/>
</svg>
