<svg width="110" height="196" viewBox="0 0 110 196" fill="none" xmlns="http://www.w3.org/2000/svg">
<path d="M109.999 98.2798C109.999 101.32 108.799 104.24 106.639 106.4L20.3596 192.64C19.2919 193.706 18.0247 194.552 16.6303 195.128C15.2358 195.705 13.7415 196.001 12.2325 196C10.7236 195.999 9.22956 195.701 7.83583 195.123C6.4421 194.544 5.17593 193.697 4.1096 192.63C3.04326 191.562 2.19766 190.295 1.62107 188.9C1.04447 187.506 0.748181 186.011 0.74911 184.503C0.750038 182.994 1.04817 181.5 1.62648 180.106C2.20479 178.712 3.05194 177.446 4.11959 176.38L82.2394 98.2798L4.11959 20.16C3.05325 19.0936 2.2074 17.8277 1.6303 16.4345C1.05321 15.0412 0.756179 13.548 0.756179 12.04C0.756179 10.5319 1.05321 9.03869 1.6303 7.64546C2.2074 6.25223 3.05325 4.98631 4.11959 3.91998C5.18592 2.85365 6.45184 2.00779 7.84507 1.4307C9.2383 0.853604 10.7316 0.556573 12.2396 0.556573C13.7476 0.556573 15.2409 0.853604 16.6341 1.4307C18.0273 2.00779 19.2932 2.85365 20.3596 3.91998L106.639 90.1398C107.708 91.2087 108.554 92.478 109.131 93.8748C109.708 95.2717 110.003 96.7686 109.999 98.2798V98.2798Z" fill="white"/>
</svg>
